<svg width="439" height="75" viewBox="0 0 439 75" fill="none" xmlns="http://www.w3.org/2000/svg">
<g clip-path="url(#clip0_104_70)">
<path d="M155.58 57.73V18.43H174.94C182.63 18.43 186.77 22.57 186.77 29.14C186.782 30.6963 186.336 32.2217 185.488 33.5267C184.64 34.8317 183.427 35.8587 182 36.48C185.32 37.72 188 40.39 188 46.01C188 53.17 183.2 57.73 173.32 57.73H155.58ZM163.51 25.24V33.76H173.87C177.13 33.76 178.87 32.28 178.87 29.5C178.87 26.5 177.28 25.24 173.43 25.24H163.51ZM173.93 51C177.72 51 179.93 48.58 179.93 45.38C179.93 41.95 177.68 40.38 174.01 40.38H163.51V51H173.93Z" fill="#020202"/>
<path d="M197.44 45.18C197.67 49.56 200.16 52.4 203.95 52.4C206.43 52.4 208.62 51.16 209.16 49.15H217.09C215.31 55.15 210.52 58.5 204.3 58.5C194.6 58.5 189.74 53.17 189.74 42.64C189.74 33.64 194.89 27.84 203.83 27.84C212.77 27.84 217.5 33.64 217.5 45.18H197.44ZM209.57 40.33C209.45 36.01 206.57 33.94 203.57 33.94C200.57 33.94 197.95 36.3 197.65 40.33H209.57Z" fill="#020202"/>
<path d="M220.61 57.73V18.43H238C245.7 18.43 250.61 24.05 250.61 31.15C250.61 38.25 245.65 43.47 238 43.47H228.89V57.73H220.61ZM236.61 36.78C241.35 36.78 243.3 34.35 243.3 30.92C243.3 27.66 241.3 25.24 236.61 25.24H228.8V36.78H236.61Z" fill="#020202"/>
<path d="M252.49 57.73V28.61H259.71V32.1C262.26 28.2 265.22 27.84 268.35 27.84H269.35V35.71C268.646 35.5906 267.934 35.5303 267.22 35.53C262.49 35.53 260.22 37.9 260.22 42.53V57.73H252.49Z" fill="#020202"/>
<path d="M278.35 45.18C278.59 49.56 281.08 52.4 284.87 52.4C287.35 52.4 289.54 51.16 290.07 49.15H298C296.22 55.15 291.43 58.5 285.21 58.5C275.5 58.5 270.65 53.17 270.65 42.64C270.65 33.64 275.8 27.84 284.74 27.84C293.68 27.84 298.41 33.64 298.41 45.18H278.35ZM290.49 40.33C290.37 36.01 287.49 33.94 284.49 33.94C281.49 33.94 278.87 36.3 278.57 40.33H290.49Z" fill="#020202"/>
<path d="M301.51 71.52V28.61H308.9L308.96 32.16C309.789 30.7688 310.983 29.6309 312.413 28.8695C313.842 28.108 315.453 27.752 317.07 27.84C324.41 27.84 329.68 33.64 329.68 43.47C329.68 52.29 325.24 58.47 317.68 58.47C315.97 58.5123 314.278 58.1153 312.765 57.3169C311.253 56.5186 309.97 55.3456 309.04 53.91V71.52H301.51ZM321.87 42.93C321.87 37.72 319.14 34.11 315.3 34.11C311.63 34.11 308.79 37.55 308.79 42.46C308.79 48.79 310.98 51.93 315.24 51.93C319.74 51.93 321.87 48.91 321.87 42.93Z" fill="#020202"/>
<path d="M350.74 57.73C350.478 56.8852 350.317 56.0125 350.26 55.13C348.43 57.13 345.35 58.5 341.44 58.5C334.81 58.5 331.74 55.24 331.74 50.5C331.74 42.09 337.36 41.15 345.11 40.08C348.96 39.55 350.02 38.78 350.02 36.77C350.02 34.76 348.13 33.77 345.11 33.77C341.62 33.77 340.2 35.49 339.84 38.09H332.68C332.8 32.09 336.12 27.85 345.47 27.85C354.82 27.85 357.9 32 357.9 39.32V57.73H350.74ZM350.2 43.47C349.43 44.24 348.07 44.65 345.2 45.18C340.82 46.01 339.4 47.25 339.4 49.74C339.4 51.93 340.7 53 343.13 53C344.898 53.0817 346.626 52.4609 347.937 51.2731C349.248 50.0853 350.037 48.4269 350.13 46.66L350.2 43.47Z" fill="#020202"/>
<path d="M362.07 57.73V28.61H369.29V32.1C371.84 28.2 374.8 27.84 377.93 27.84H378.93V35.71C378.226 35.5906 377.514 35.5303 376.8 35.53C372.07 35.53 369.8 37.9 369.8 42.53V57.73H362.07Z" fill="#020202"/>
<path d="M387.94 45.18C388.17 49.56 390.66 52.4 394.45 52.4C396.93 52.4 399.12 51.16 399.66 49.15H407.59C405.81 55.15 401.02 58.5 394.8 58.5C385.1 58.5 380.24 53.17 380.24 42.64C380.24 33.64 385.39 27.84 394.33 27.84C403.27 27.84 408 33.64 408 45.18H387.94ZM400.07 40.33C399.95 36.01 397.07 33.94 394.07 33.94C391.07 33.94 388.45 36.3 388.15 40.33H400.07Z" fill="#020202"/>
<path d="M430.86 57.73L430.8 54.18C429.972 55.572 428.778 56.7105 427.348 57.472C425.918 58.2336 424.307 58.5891 422.69 58.5C415.35 58.5 410.09 52.7 410.09 42.87C410.09 34.05 414.52 27.87 422.09 27.87C423.8 27.8277 425.492 28.2247 427.005 29.0231C428.517 29.8215 429.8 30.9945 430.73 32.43V18H438.31V57.73H430.86ZM431 43.88C431 37.55 428.81 34.41 424.55 34.41C420.05 34.41 417.92 37.41 417.92 43.41C417.92 48.62 420.64 52.23 424.49 52.23C428.14 52.23 431 48.79 431 43.88Z" fill="#020202"/>
<path d="M66.39 62.48C75.3039 62.48 82.53 55.2539 82.53 46.34C82.53 37.4261 75.3039 30.2 66.39 30.2C57.4761 30.2 50.25 37.4261 50.25 46.34C50.25 55.2539 57.4761 62.48 66.39 62.48Z" fill="#DB2B51"/>
<path d="M66.39 6.29C72.5434 6.29 78.5586 8.11482 83.6748 11.5337C88.7911 14.9525 92.7785 19.8118 95.1329 25.497C97.4872 31.1822 98.1027 37.4379 96.9015 43.4729C95.7003 49.508 92.7364 55.0512 88.3846 59.4016C84.0327 63.752 78.4885 66.7142 72.4531 67.9135C66.4177 69.1127 60.1622 68.4952 54.4778 66.139C48.7934 63.7828 43.9353 59.7938 40.5181 54.6765C37.1009 49.5592 35.278 43.5434 35.28 37.39C35.2879 29.1425 38.5685 21.2352 44.4013 15.4042C50.2341 9.57327 58.1425 6.29529 66.39 6.29ZM66.39 0C58.995 0 51.766 2.19288 45.6172 6.30135C39.4685 10.4098 34.6761 16.2493 31.8461 23.0815C29.0162 29.9136 28.2757 37.4315 29.7184 44.6844C31.1611 51.9374 34.7222 58.5996 39.9513 63.8287C45.1804 69.0578 51.8426 72.6189 59.0956 74.0616C66.3485 75.5043 73.8664 74.7638 80.6985 71.9339C87.5307 69.1039 93.3702 64.3115 97.4786 58.1628C101.587 52.014 103.78 44.785 103.78 37.39C103.777 27.4744 99.8372 17.9656 92.8258 10.9542C85.8144 3.94279 76.3056 0.00265088 66.39 0Z" fill="#DB2B51"/>
<path d="M116.05 16L110.27 18.43C112.865 24.4282 114.204 30.8945 114.204 37.43C114.204 43.9655 112.865 50.4318 110.27 56.43L116.07 58.86C118.992 52.097 120.5 44.8074 120.5 37.44C120.5 30.0726 118.992 22.783 116.07 16.02L116.05 16ZM22.05 19.51L16.27 17.09C10.9762 30.1299 10.9762 44.7201 16.27 57.76L22.07 55.33C17.4303 43.8407 17.4303 30.9993 22.07 19.51H22.05Z" fill="#DB2B51"/>
<path d="M10.71 14.73L4.93 12.3C-1.64329 28.3808 -1.64329 46.3991 4.93 62.48L10.71 60.06C4.81655 45.5246 4.81655 29.2653 10.71 14.73ZM127.39 11.22L121.61 13.65C124.83 21.1523 126.49 29.231 126.49 37.395C126.49 45.559 124.83 53.6377 121.61 61.14L127.39 63.55C130.939 55.2834 132.77 46.3812 132.77 37.385C132.77 28.3887 130.939 19.4865 127.39 11.22Z" fill="#DB2B51"/>
</g>
<defs>
<clipPath id="clip0_104_70">
<rect width="438.26" height="74.78" fill="white"/>
</clipPath>
</defs>
</svg>
