<svg width="149" height="94" viewBox="0 0 149 94" fill="none" xmlns="http://www.w3.org/2000/svg">
<g clip-path="url(#clip0_104_222)">
<path d="M74.5157 48.5462C81.4074 48.5462 86.9943 42.9316 86.9943 36.0056C86.9943 29.0796 81.4074 23.465 74.5157 23.465C67.6241 23.465 62.0372 29.0796 62.0372 36.0056C62.0372 42.9316 67.6241 48.5462 74.5157 48.5462Z" fill="#DB2B51"/>
<path d="M74.5157 4.88725C79.2735 4.88572 83.9249 6.30228 87.8815 8.95775C91.8381 11.6132 94.9221 15.3883 96.7435 19.8055C98.565 24.2227 99.0419 29.0835 98.1141 33.7732C97.1863 38.4628 94.8954 42.7706 91.5311 46.1516C88.1668 49.5326 83.8804 51.8349 79.214 52.7674C74.5475 53.6998 69.7107 53.2205 65.3154 51.39C60.9201 49.5595 57.1637 46.4601 54.5213 42.4838C51.879 38.5075 50.4695 33.833 50.471 29.0516C50.4792 22.6453 53.0151 16.5038 57.5226 11.9739C62.0301 7.444 68.1412 4.89548 74.5157 4.88725ZM74.5157 0C68.7983 0 63.2093 1.70385 58.4554 4.89607C53.7015 8.0883 49.9964 12.6255 47.8084 17.934C45.6204 23.2425 45.048 29.0838 46.1634 34.7193C47.2788 40.3547 50.032 45.5312 54.0748 49.5941C58.1177 53.6571 63.2685 56.424 68.8761 57.5449C74.4837 58.6659 80.296 58.0906 85.5783 55.8917C90.8605 53.6929 95.3752 49.9693 98.5517 45.1918C101.728 40.4143 103.424 34.7974 103.424 29.0516C103.424 21.3466 100.378 13.9572 94.9566 8.50901C89.5354 3.06078 82.1825 0 74.5157 0Z" fill="#DB2B51"/>
<path d="M112.918 12.4318L108.441 14.2966C110.445 18.9577 111.479 23.9817 111.479 29.0593C111.479 34.137 110.445 39.161 108.441 43.8221L112.925 45.7102C115.18 40.4541 116.343 34.7907 116.343 29.0671C116.343 23.3435 115.18 17.6801 112.925 12.424L112.918 12.4318ZM40.2423 15.159L35.7736 13.2787C31.6709 23.4086 31.6709 34.7489 35.7736 44.8788L40.2501 42.9674C36.6677 34.0394 36.6677 24.0637 40.2501 15.1357L40.2423 15.159Z" fill="#DB2B51"/>
<path d="M31.4749 11.445L26.9984 9.55692C21.9262 22.0535 21.9262 36.0496 26.9984 48.5462L31.4749 46.6659C26.9078 35.3742 26.9078 22.7367 31.4749 11.445ZM121.685 8.71777L117.209 10.6059C119.698 16.4351 120.982 22.7121 120.982 29.0554C120.982 35.3987 119.698 41.6758 117.209 47.505L121.685 49.3775C124.429 42.9546 125.844 36.0376 125.844 29.0477C125.844 22.0577 124.429 15.1408 121.685 8.71777Z" fill="#DB2B51"/>
<path d="M0 86.7507V66.0906H10.1282C14.1485 66.0906 16.3133 68.2661 16.3133 71.716C16.3234 72.5406 16.0901 73.3497 15.6429 74.0412C15.1957 74.7326 14.5546 75.2754 13.8006 75.6009C15.5402 76.2536 16.9318 77.6522 16.9318 80.6125C16.9318 84.3809 14.4268 86.774 9.25451 86.774L0 86.7507ZM4.15177 69.657V74.1402H9.56377C11.2647 74.1402 12.1615 73.3632 12.1615 71.9024C12.1615 70.3485 11.3265 69.657 9.31637 69.657H4.15177ZM9.60243 83.2232C10.0079 83.2617 10.4168 83.2135 10.8023 83.0817C11.1879 82.9499 11.5413 82.7376 11.8393 82.4586C12.1373 82.1797 12.3731 81.8405 12.5313 81.4634C12.6894 81.0863 12.7663 80.6797 12.7568 80.2706C12.7568 78.468 11.5817 77.6522 9.66428 77.6522H4.15177V83.2232H9.60243Z" fill="#020202"/>
<path d="M22.0113 80.1541C22.1351 82.4851 23.4339 83.9536 25.4209 83.9536C25.9988 84.0048 26.5775 83.8647 27.0689 83.5547C27.5602 83.2447 27.9372 82.7818 28.1424 82.2364H32.2941C31.9056 83.7003 31.0303 84.9866 29.8137 85.8813C28.5971 86.7761 27.1124 87.2254 25.6065 87.1548C20.5269 87.1548 17.9833 84.3576 17.9833 78.8177C17.9833 74.0858 20.6815 71.0478 25.3591 71.0478C30.0366 71.0478 32.5106 74.1014 32.5106 80.1696L22.0113 80.1541ZM28.3588 77.5978C28.297 75.329 26.8126 74.2412 25.2663 74.2412C23.72 74.2412 22.3206 75.4844 22.1737 77.5978H28.3588Z" fill="#020202"/>
<path d="M34.2502 86.7507V66.0906H43.2959C44.1759 66.0585 45.0528 66.2101 45.8715 66.5358C46.6902 66.8615 47.4328 67.3541 48.0525 67.9828C48.6722 68.6114 49.1555 69.3623 49.4719 70.188C49.7883 71.0138 49.931 71.8965 49.8909 72.7804C49.8909 76.5411 47.3163 79.2527 43.2959 79.2527H38.5566V86.7507H34.2502ZM42.6388 75.733C45.1206 75.733 46.1411 74.4587 46.1411 72.625C46.1411 70.7913 45.1206 69.6336 42.6388 69.6336H38.5566V75.7019L42.6388 75.733Z" fill="#020202"/>
<path d="M51.0274 86.7507V71.4363H54.8081V73.2777C56.1379 71.2187 57.6842 71.0322 59.331 71.0322H59.8567V75.1736C59.4939 75.1125 59.1267 75.0814 58.7588 75.0803C56.277 75.0803 55.0709 76.3235 55.0709 78.7866V86.7507H51.0274Z" fill="#020202"/>
<path d="M64.7197 80.1541C64.8434 82.4851 66.1423 83.9536 68.1215 83.9536C68.7003 84.004 69.2796 83.8637 69.772 83.5539C70.2644 83.2441 70.643 82.7816 70.8507 82.2364H74.9948C74.6063 83.7003 73.731 84.9866 72.5144 85.8813C71.2977 86.7761 69.8131 87.2254 68.3071 87.1548C63.2276 87.1548 60.6917 84.3576 60.6917 78.8177C60.6917 74.0858 63.3822 71.0478 68.0597 71.0478C72.7372 71.0478 75.2113 74.1014 75.2113 80.1696L64.7197 80.1541ZM71.0672 77.5978C71.0054 75.329 69.5209 74.2412 67.9746 74.2412C66.4284 74.2412 65.0367 75.4844 64.8821 77.5978H71.0672Z" fill="#020202"/>
<path d="M76.9509 94.0155V71.4829H80.8166V73.3554C81.2493 72.6222 81.8739 72.0223 82.6222 71.6209C83.3706 71.2195 84.2141 71.0321 85.0611 71.0789C88.9268 71.0789 91.656 74.1324 91.656 79.2994C91.656 83.9613 89.3366 87.2014 85.4013 87.2014C84.5071 87.2221 83.6224 87.0131 82.831 86.5944C82.0396 86.1756 81.3675 85.5609 80.8784 84.8082V94.0155H76.9509ZM87.597 78.9886C87.597 76.2458 86.1745 74.3267 84.1643 74.3267C82.1541 74.3267 80.7547 76.1293 80.7547 78.7167C80.7547 82.0422 81.899 83.6972 84.1334 83.6972C86.4837 83.7049 87.597 82.1121 87.597 78.9731V78.9886Z" fill="#020202"/>
<path d="M102.828 86.7507C102.693 86.3062 102.61 85.8472 102.581 85.3832C101.971 85.9844 101.244 86.4522 100.446 86.757C99.6473 87.0619 98.7947 87.1974 97.9417 87.1548C94.4703 87.1548 92.8621 85.4454 92.8621 82.9513C92.8621 78.538 95.8001 78.0407 99.8204 77.4735C101.831 77.1938 102.395 76.7898 102.395 75.7331C102.395 74.6763 101.398 74.1791 99.8204 74.1791C97.9958 74.1791 97.2536 75.0804 97.068 76.4479H93.3183C93.3801 73.2778 95.112 71.0634 100.006 71.0634C104.9 71.0634 106.508 73.2467 106.508 77.1006V86.7818L102.828 86.7507ZM102.55 79.2528C102.14 79.6568 101.429 79.8744 99.9441 80.1541C97.6247 80.5892 96.9134 81.2419 96.9134 82.5472C96.9134 83.7049 97.5938 84.2644 98.8617 84.2644C99.7852 84.3046 100.687 83.9771 101.372 83.3531C102.057 82.729 102.469 81.8587 102.519 80.9311L102.55 79.2528Z" fill="#020202"/>
<path d="M108.882 86.7507V71.4363H112.655V73.2777C113.992 71.2187 115.538 71.0322 117.177 71.0322H117.703V75.1736C117.335 75.1117 116.963 75.0805 116.59 75.0803C114.116 75.0803 112.91 76.3235 112.91 78.7866V86.7507H108.882Z" fill="#020202"/>
<path d="M122.543 80.1541C122.667 82.4851 123.966 83.9536 125.953 83.9536C126.531 84.0048 127.109 83.8647 127.601 83.5547C128.092 83.2447 128.469 82.7818 128.674 82.2364H132.826C132.437 83.7003 131.562 84.9866 130.345 85.8813C129.129 86.7761 127.644 87.2254 126.138 87.1548C121.059 87.1548 118.515 84.3576 118.515 78.8177C118.515 74.0858 121.213 71.0478 125.891 71.0478C130.568 71.0478 133.042 74.1014 133.042 80.1696L122.543 80.1541ZM128.891 77.5978C128.829 75.329 127.344 74.2412 125.798 74.2412C124.252 74.2412 122.852 75.4844 122.705 77.5978H128.891Z" fill="#020202"/>
<path d="M145.134 86.7507V84.8859C144.701 85.6177 144.076 86.216 143.327 86.616C142.579 87.016 141.736 87.2023 140.89 87.1547C137.024 87.1547 134.295 84.1089 134.295 78.942C134.295 74.28 136.614 71.0322 140.55 71.0322C141.445 71.0116 142.33 71.2214 143.122 71.6416C143.913 72.0618 144.585 72.6785 145.072 73.4331V65.8342H149.031V86.7507H145.134ZM145.196 79.4703C145.196 76.137 144.044 74.4898 141.817 74.4898C139.498 74.4898 138.346 76.0438 138.346 79.2217C138.346 81.9567 139.776 83.8836 141.787 83.8836C143.797 83.8836 145.196 82.0499 145.196 79.4703Z" fill="#020202"/>
</g>
<defs>
<clipPath id="clip0_104_222">
<rect width="149" height="94" fill="white"/>
</clipPath>
</defs>
</svg>
